<svg width="20" height="19" viewBox="0 0 20 19" fill="none" xmlns="http://www.w3.org/2000/svg">
<path d="M19.9392 10.36L18.8892 7.14C18.8892 7.11 18.8792 7.08 18.8692 7.05L16.7592 0.57C16.6492 0.25 16.3292 0 15.9592 0C15.5992 0 15.2792 0.25 15.1692 0.58L13.1692 6.75H6.83922L4.82922 0.58C4.71922 0.25 4.39922 0 4.03922 0C3.66922 0 3.34922 0.25 3.23922 0.58L1.12922 7.07V7.08L0.0592197 10.36C-0.10078 10.86 0.0692197 11.4 0.49922 11.7L9.71922 18.41C9.88922 18.53 10.1092 18.53 10.2792 18.4L19.4992 11.7C19.9292 11.4 20.0992 10.86 19.9392 10.36ZM6.14922 7.7L8.71922 15.61L2.54922 7.7M11.2792 15.62L13.7492 8.03L13.8492 7.7H17.4592L11.8692 14.86M15.9692 1.19L17.7792 6.75H14.1592M12.8592 7.7L11.0692 13.21L9.99922 16.49L7.13922 7.7M4.02922 1.19L5.83922 6.75H2.22922M1.04922 10.94C0.95922 10.87 0.91922 10.75 0.95922 10.65L1.74922 8.22L7.56922 15.67M18.9492 10.94L12.4392 15.67L12.4592 15.64L18.2492 8.22L19.0392 10.65C19.0792 10.75 19.0392 10.87 18.9492 10.94Z" fill="black" fill-opacity="0.76"/>
</svg>
